<svg xmlns="http://www.w3.org/2000/svg" viewBox="0 0 35 36"><title>Wheels (2)mdpi</title><g id="Layer_2" data-name="Layer 2"><g id="Frame"><g id="Wheels"><ellipse cx="17.5" cy="18" rx="16.5" ry="17" fill="#e6e6e6" stroke="#673d6d" stroke-miterlimit="10" stroke-width="2"/><path d="M16.29,22.55,13.92,30s3.16,4.62,7.12,0l-2.38-7.4Z" fill="gray" stroke="#673d6d" stroke-miterlimit="10" stroke-width="2"/><path d="M18.65,14.23,21,6.83s-3.17-4.62-7.12,0l2.37,7.4Z" fill="gray" stroke="#673d6d" stroke-miterlimit="10" stroke-width="2"/><path d="M13.92,17.24,7.59,14.47s-4,3.69,0,8.32L13.92,20Z" fill="gray" stroke="#673d6d" stroke-miterlimit="10" stroke-width="2"/><path d="M21,20l6.33,2.77s3.95-3.69,0-8.32L21,17.23Z" fill="gray" stroke="#673d6d" stroke-miterlimit="10" stroke-width="2"/><line x1="9.96" y1="27.17" x2="12.33" y2="24.4" fill="gray" stroke="#673d6d" stroke-miterlimit="10" stroke-width="2"/><line x1="22.82" y1="24.75" x2="25.19" y2="27.52" fill="gray" stroke="#673d6d" stroke-miterlimit="10" stroke-width="2"/><line x1="10.26" y1="10.47" x2="12.63" y2="13.25" fill="gray" stroke="#673d6d" stroke-miterlimit="10" stroke-width="2"/><line x1="24.5" y1="10.47" x2="22.12" y2="13.25" fill="gray" stroke="#673d6d" stroke-miterlimit="10" stroke-width="2"/></g></g></g></svg>