<svg xmlns="http://www.w3.org/2000/svg" viewBox="0 0 240.5 135"><title>Asset 108mdpi</title><g id="Layer_2" data-name="Layer 2"><g id="Frame"><g id="Back_Wheels" data-name="Back Wheels"><ellipse cx="213.88" cy="107" rx="25.63" ry="27" fill="gray" stroke="#673d6d" stroke-miterlimit="10" stroke-width="2"/><ellipse cx="204.13" cy="107" rx="25.63" ry="27" fill="#b3b3b3" stroke="#673d6d" stroke-miterlimit="10" stroke-width="2"/><line x1="202.5" y1="134" x2="216.5" y2="134" fill="none" stroke="#673d6d" stroke-miterlimit="10" stroke-width="2"/><line x1="204.5" y1="80" x2="215" y2="80" fill="none" stroke="#673d6d" stroke-miterlimit="10" stroke-width="2"/><ellipse cx="204" cy="107" rx="16.5" ry="17" fill="#666" stroke="#673d6d" stroke-miterlimit="10" stroke-width="2"/><ellipse cx="73.88" cy="107" rx="25.63" ry="27" fill="gray" stroke="#673d6d" stroke-miterlimit="10" stroke-width="2"/><ellipse cx="64.13" cy="107" rx="25.63" ry="27" fill="#b3b3b3" stroke="#673d6d" stroke-miterlimit="10" stroke-width="2"/><line x1="62.5" y1="134" x2="76.5" y2="134" fill="none" stroke="#673d6d" stroke-miterlimit="10" stroke-width="2"/><line x1="64.5" y1="80" x2="76.5" y2="80" fill="none" stroke="#673d6d" stroke-miterlimit="10" stroke-width="2"/><ellipse cx="64" cy="107" rx="16.5" ry="17" fill="#666" stroke="#673d6d" stroke-miterlimit="10" stroke-width="2"/></g><g id="Engine"><path d="M195.62,98.26H177a6.51,6.51,0,0,1-6.29-6.71L162.87,69.8a6.52,6.52,0,0,1,6.3-6.71H200a6.52,6.52,0,0,1,6.3,6.71l-4.34,21.75A6.51,6.51,0,0,1,195.62,98.26Z" fill="#666" stroke="#4d4d4d" stroke-miterlimit="10" stroke-width="2"/><path d="M188.61,63.71s-6.65-1.54-5.78,4,10.12,31,10.12,31" fill="none" stroke="#4d4d4d" stroke-miterlimit="10" stroke-width="2"/><ellipse cx="196.27" cy="89.93" rx="3.04" ry="5.55" fill="#666" stroke="#4d4d4d" stroke-miterlimit="10" stroke-width="2"/><ellipse cx="190.2" cy="70.5" rx="3.04" ry="5.55" fill="#666" stroke="#4d4d4d" stroke-miterlimit="10" stroke-width="2"/><ellipse cx="199.74" cy="70.5" rx="3.04" ry="5.55" fill="#666" stroke="#4d4d4d" stroke-miterlimit="10" stroke-width="2"/><line x1="186.51" y1="80.29" x2="166.34" y2="80.68" fill="#666" stroke="#4d4d4d" stroke-miterlimit="10" stroke-width="2"/></g><g id="Bars"><g id="Layer_6" data-name="Layer 6"><path d="M227.06,65.87c1.74-6.48-2.23-7.06-5-7.06H9.91c-2.71,0-4.91.09-4.91,7V99.24c0,4.06,1.44,7.36,4.29,7.36h205.2" fill="none" stroke="#333" stroke-miterlimit="10" stroke-width="4"/><path d="M79.6,76.05,39.7,46.43,79.91,2C80.1,1.75,79.6,77,79.6,77" fill="none" stroke="#333" stroke-miterlimit="10" stroke-width="4"/><path d="M6.73,104.74l6.94-43.5c.83-1.67,1.74-1,1.74.93l6.07,43.5" fill="none" stroke="#333" stroke-miterlimit="10" stroke-width="4"/><path d="M80.47,2H135c3.22,0,36.52,28.69,36.52,28.69l52,27.77" fill="none" stroke="#333" stroke-miterlimit="10" stroke-width="4"/><line x1="227.06" y1="65.87" x2="213.19" y2="107.52" fill="none" stroke="#333" stroke-miterlimit="10" stroke-width="4"/><polyline points="78.73 75.12 119.79 105.64 203.64 60.75" fill="none" stroke="#333" stroke-miterlimit="10" stroke-width="4"/><line x1="40.57" y1="45.55" x2="7.6" y2="58.93" fill="none" stroke="#333" stroke-miterlimit="10" stroke-width="4"/><polyline points="129.04 2.93 133.38 30.69 173.28 31.33" fill="none" stroke="#333" stroke-miterlimit="10" stroke-width="4"/><polyline points="213.19 106.59 204.51 60.01 135.12 30.69 79.6 30.69" fill="none" stroke="#333" stroke-miterlimit="10" stroke-width="4"/><polyline points="119.5 105.64 133.38 58.9 133.38 31.24" fill="none" stroke="#333" stroke-miterlimit="10" stroke-width="4"/><ellipse cx="66.59" cy="106.6" rx="10.41" ry="7.4" fill="#333"/><ellipse cx="181.96" cy="106.6" rx="10.41" ry="7.4" fill="#333"/><path d="M99.55,38.65" fill="none" stroke="#333" stroke-miterlimit="10" stroke-width="4"/></g></g><g id="Wheels"><ellipse cx="36.38" cy="107" rx="25.63" ry="27" fill="gray" stroke="#673d6d" stroke-miterlimit="10" stroke-width="2"/><ellipse cx="26.63" cy="107" rx="25.63" ry="27" fill="#b3b3b3" stroke="#673d6d" stroke-miterlimit="10" stroke-width="2"/><line x1="25" y1="134" x2="39" y2="134" fill="none" stroke="#673d6d" stroke-miterlimit="10" stroke-width="2"/><line x1="27.96" y1="80" x2="38.37" y2="80" fill="none" stroke="#673d6d" stroke-miterlimit="10" stroke-width="2"/><ellipse cx="166.88" cy="107" rx="25.63" ry="27" fill="gray" stroke="#673d6d" stroke-miterlimit="10" stroke-width="2"/><ellipse cx="157.13" cy="107" rx="25.63" ry="27" fill="#b3b3b3" stroke="#673d6d" stroke-miterlimit="10" stroke-width="2"/><line x1="155.5" y1="134" x2="169.5" y2="134" fill="none" stroke="#673d6d" stroke-miterlimit="10" stroke-width="2"/><line x1="157" y1="80" x2="169" y2="80" fill="none" stroke="#673d6d" stroke-miterlimit="10" stroke-width="2"/></g></g></g></svg>